<svg width="1744" height="1719" viewBox="0 0 1744 1719" fill="none" xmlns="http://www.w3.org/2000/svg">
<path d="M1084.91 1072.72C985.844 1369.63 721.203 1461.32 581.271 1092.54C562.028 1041.83 612.342 1022.95 647.529 1000.63C671.631 985.348 684.292 972.093 682.824 958.426C675.896 893.951 645.903 714.572 645.903 714.572L642.852 708.793C642.852 708.793 643.583 707.173 640.712 710.038C637.72 713.025 630.819 744.214 603.622 744.214C579.238 744.214 554.483 733.314 542.636 657.886C538.349 630.589 540.782 559.025 570.989 546.102C583.472 540.763 594.988 538.854 606.222 545.263C617.456 551.671 593.26 523.357 718.209 419.232C799.427 351.549 927.717 341.629 979.484 353.057C1031.25 364.484 1083.02 389.824 1105.91 443.483C1133.69 508.593 1080.03 557.759 1091.82 706.042C1089.67 759.617 1092.74 877.198 945.314 916.607C917.313 924.093 926 965 968 975C1035 996 1084.96 1047.27 1084.96 1072.86" fill="white"/>
<path fill-rule="evenodd" clip-rule="evenodd" d="M1084.94 611.2L1085.1 609.806C1089.24 573.399 1093.26 538.118 1112.24 506.429C1118.7 510.85 1117.95 516.452 1115.93 521.643C1096.01 572.845 1097.84 626.04 1099.67 679.206C1099.83 683.863 1099.99 688.519 1100.14 693.174C1102.22 759.601 1085.65 819.988 1041.35 870.736C1025.98 888.348 1005.63 900.464 984.854 911.045C963.515 921.912 959.03 931.132 965.687 954.599C965.93 955.455 966.229 956.315 966.529 957.178C967.892 961.1 969.273 965.073 965.487 968.95C960.965 973.58 956.026 972.259 950.683 970.829C950.48 970.775 950.277 970.721 950.074 970.667C899.733 957.241 854.697 933.154 813.056 902.393C807.139 898.022 802.272 892.06 797.561 886.29L797.561 886.289L797.256 885.916C794.776 882.879 794.338 878.141 797.807 875.462C801.054 872.955 803.609 875.011 806.452 877.298C806.815 877.59 807.182 877.886 807.556 878.176C830.027 895.614 854.773 907.063 883.768 909.943C897.176 911.275 910.448 910.784 923.708 910.293H923.708H923.709C931.17 910.017 938.626 909.741 946.101 909.79C956.34 909.857 964.752 905.107 972.761 900.584C973.712 900.047 974.658 899.513 975.601 898.99C1003.45 883.545 1029.88 866.229 1047.84 838.331C1063.92 813.331 1073.67 786.1 1079.4 757.443C1086.65 721.27 1085.99 684.7 1085.32 647.621C1085.11 635.536 1084.89 623.397 1084.94 611.2ZM581.684 535.824C603.577 534.064 615.771 547.033 626.037 562.053C638.664 580.526 645.39 601.465 648.37 623.572C648.87 627.28 649.389 631.223 647.152 634.856C642.737 635.45 642.319 631.946 642.252 629.317C641.696 608.644 632.526 590.61 623.308 573.156C616.73 560.704 607.059 548.64 591.943 545.577C574.71 542.084 558.858 557.566 551.067 577.842C536.636 615.398 539.029 652.36 552.455 688.759C558.33 704.687 565.648 720.913 580.303 732.026C595.142 743.28 613.008 741.295 623.903 726.349C624.526 725.494 625.184 724.649 625.845 723.801L625.845 723.801L625.845 723.801C627.841 721.238 629.853 718.656 630.928 715.749C633.035 710.049 636.256 704.629 642.155 705.423C648.978 706.342 650.271 713.729 650.909 719.499C656.707 771.928 664.758 824.024 672.81 876.126L672.81 876.126C674.808 889.053 676.806 901.98 678.769 914.913C681.369 932.023 684.381 956.598 682.361 967.05C682.219 967.792 682.136 968.523 682.058 969.222C681.749 971.958 681.496 974.21 677.906 974.75C673.034 975.484 670.831 972.66 670.233 968.28C667.913 951.274 667.273 944.747 666.275 918.735C665.308 893.519 660.569 868.665 655.83 843.816L655.83 843.815C654.111 834.799 652.392 825.784 650.853 816.753C645.613 785.996 640.483 754.802 640.022 719.777C639.326 720.808 638.644 721.825 637.974 722.826C630.426 734.095 624.264 743.295 613.48 746.877C595.58 752.827 579.917 748.422 567.371 734.277C553.071 718.155 543.783 699.808 538.558 678.498C530.244 644.587 528.704 611.368 539.487 577.853C544.655 561.774 563.189 533.208 581.684 535.824ZM616.346 663.326C620.717 666.467 624.679 669.316 628.334 657.948C627.158 615.652 613.6 588.654 592.472 587.632C603.747 602.197 614.559 616.413 615.472 636.132C610.742 633.978 607.7 630.589 604.784 627.342C602.753 625.08 600.784 622.886 598.348 621.226C597.31 620.518 596.295 619.735 595.271 618.946C590.544 615.301 585.636 611.516 577.471 614.357C581.301 620.187 586.575 624.301 591.799 628.377C597.832 633.083 603.798 637.737 607.392 644.919C596.777 652.561 592.209 662.62 597.718 674.761C602.497 685.296 609.565 694 623.565 694.635C623.043 688.31 618.868 683.707 614.812 679.235C609.879 673.796 605.121 668.55 607.316 660.635C610.515 659.133 613.516 661.291 616.346 663.326Z" fill="black"/>
<path d="M1469.64 1604H261.233L269.845 1540.73C269.845 1540.73 192.236 1514.29 184.465 1498.97C176.694 1483.65 268.635 1284.83 281.244 1253.36C293.853 1221.89 358.22 1110.6 396.347 1089.34C438.731 1065.71 577.998 1002.56 585.903 996.183C612.023 975.114 668.579 953.383 668.579 953.383V984.11L840.004 1265.01L850.339 1302.93C850.339 1302.93 953.865 1021.89 963.654 964.967C971.9 917.012 1083.52 975.114 1083.52 975.114C1083.52 975.114 1197.65 1045.68 1226.45 1068.41C1284.94 1114.55 1366.46 1206.96 1407.24 1307.56C1430.36 1364.55 1479.67 1475.82 1487.78 1488.88C1495.9 1501.94 1460.8 1524.93 1460.8 1524.93L1469.64 1604Z" fill="white"/>
<path fill-rule="evenodd" clip-rule="evenodd" d="M1222.53 1075.09L1222.51 1075.07C1198.37 1055.14 1174.25 1035.22 1147.42 1019.79C1143.52 1017.55 1139.66 1015.22 1135.79 1012.89C1122.63 1004.96 1109.39 996.981 1094.39 992.168C1092.59 1002.41 1093.04 1012.18 1093.86 1021.76C1097.88 1068.87 1099.6 1115.87 1094.07 1163.07C1092.73 1174.59 1092.99 1186.37 1093.26 1198.12C1093.35 1202.21 1093.45 1206.3 1093.47 1210.37C1093.45 1217.19 1092.55 1223.96 1090.79 1230.48C1088.44 1239.65 1084.11 1243.68 1074.8 1244.36C1066.5 1244.97 1058.25 1246.27 1049.99 1247.57C1036.66 1249.68 1023.31 1251.78 1009.73 1250.99C1006.91 1250.82 1004.08 1250.89 1002.36 1250.93L1002.36 1250.93C1001.83 1250.94 1001.41 1250.95 1001.13 1250.95C1002.18 1252.3 1003.35 1253.78 1004.6 1255.36L1004.6 1255.36C1007.8 1259.39 1011.52 1264.07 1015.01 1268.97C1020.54 1276.74 1021.69 1283.43 1016.5 1293.89C990.491 1346.35 955.583 1391.23 917.947 1432.16C905.844 1445.32 894.543 1459.36 883.245 1473.4L883.245 1473.4C864.51 1496.69 845.784 1519.96 823.425 1539.16C812.099 1548.89 801.871 1560.05 791.567 1571.29L791.566 1571.29L791.565 1571.29C781.462 1582.31 771.287 1593.41 759.935 1603.32C746.566 1603.98 733.671 1603.98 719.719 1603.98H719.715C726.132 1591.17 731.313 1577.52 736.52 1563.79C741.177 1551.52 745.856 1539.2 751.459 1527.36C761.342 1506.48 770.008 1484.8 778.23 1463C784.258 1447.01 784.525 1430.79 774.022 1416.22C770.195 1410.92 766.388 1405.59 762.581 1400.27C742.154 1371.7 721.728 1343.13 698.35 1317.45C687.813 1305.88 685.345 1287.49 692.093 1270.52C693.78 1266.28 695.336 1261.98 696.9 1257.65L696.902 1257.64C697.599 1255.71 698.297 1253.78 699.009 1251.85C685.089 1245.77 670.92 1245.46 656.863 1245.15C650.229 1245 643.62 1244.86 637.075 1244.11C636.604 1244.05 636.144 1244 635.692 1243.95C614.139 1241.49 613.795 1241.45 606.085 1217.74C589.666 1167.15 579.06 1114.39 574.526 1060.76C573.286 1046.37 570.89 1031.4 564.618 1017.27C541.757 1026.62 520.037 1037.09 498.286 1047.57L498.286 1047.57L497.393 1048C472.554 1059.97 448.117 1072.86 423.84 1086.15C387.803 1105.86 359.685 1135.95 336.826 1172.69L336.318 1173.51L336.317 1173.51C319.633 1200.33 302.958 1227.14 289.861 1256.54C281.997 1274.19 274.005 1291.77 266.014 1309.36L266.011 1309.36L266.007 1309.37C261.559 1319.16 257.11 1328.94 252.684 1338.74C249.2 1346.45 245.689 1354.15 242.178 1361.85L242.174 1361.86L242.174 1361.86C232.995 1381.98 223.817 1402.1 215.122 1422.49C207.804 1439.64 200.937 1457.07 194.782 1474.89C190.728 1486.63 194.689 1491.84 203.142 1494.98C208.141 1496.83 213.13 1498.84 218.122 1500.84C232.404 1506.58 246.72 1512.33 261.438 1514.69C281.413 1517.88 299.349 1526.16 317.361 1534.47L317.363 1534.47L318.671 1535.07C319.155 1535.3 319.639 1535.52 320.123 1535.74C350.379 1549.67 380.147 1565 409.87 1580.35C421.614 1586.42 432.786 1593.9 444.317 1601.62L444.317 1601.62C445.036 1602.1 445.756 1602.58 446.477 1603.06C436.895 1603.94 427.27 1604.04 417.675 1603.38C391.277 1588.09 364.065 1577.12 336.815 1566.13L336.815 1566.13C317.41 1558.31 297.986 1550.48 278.825 1541.07C277.412 1548.67 275.795 1555.82 274.233 1562.72C271.009 1576.97 268.025 1590.16 267.58 1603.98H254.954C252.818 1596.77 254.355 1590.01 255.895 1583.24L255.895 1583.24C256.314 1581.39 256.734 1579.55 257.079 1577.69C259.178 1566.42 258.326 1558.02 245.714 1555.55C227.23 1551.94 211.61 1540.79 196.094 1529.72C194.45 1528.55 192.807 1527.38 191.162 1526.22C179.06 1517.67 175.292 1500.02 179.905 1479.13C185.072 1455.72 194.309 1434.25 203.558 1412.74C203.99 1411.74 204.422 1410.73 204.854 1409.73C221.16 1371.77 238.139 1334.18 255.11 1296.61L255.112 1296.61C259.589 1286.69 264.065 1276.78 268.528 1266.87C294.241 1209.75 324.009 1154.85 366.033 1110.46C386.958 1088.35 411.083 1071.62 437.72 1058.74C445.536 1054.96 453.317 1051.07 461.1 1047.18L461.1 1047.18C481.079 1037.2 501.061 1027.22 521.622 1019.04C540.873 1011.39 549.548 1001.95 558.028 992.723C567.001 982.958 575.755 973.431 596.593 966.515C601.239 964.973 605.858 963.347 610.471 961.722C627.32 955.79 644.099 949.882 661.886 948.193C662.211 948.163 662.556 948.146 662.907 948.129C664.165 948.07 665.495 948.006 666.261 947.266C666.386 947.145 666.511 947.024 666.636 946.903C670.682 942.984 674.883 938.914 679.543 945.273C683.755 951.022 684.036 959.079 680.517 964.523C673.52 975.347 677.358 985.501 680.9 994.87L680.92 994.921C681.025 995.2 681.13 995.478 681.235 995.755C689.567 1017.87 741.448 1105.34 759.935 1130.42C761.439 1132.46 763.433 1135.11 765.82 1138.29L765.821 1138.29C786.829 1166.24 838.263 1234.67 853.775 1281.96C860.031 1269.88 864.373 1257.05 868.689 1244.31L868.69 1244.3C870.393 1239.27 872.092 1234.25 873.903 1229.3C884.352 1200.72 893.857 1171.68 903.14 1142.58C906.791 1131.13 910.055 1119.53 913.318 1107.93L913.319 1107.93L913.321 1107.92C915.964 1098.52 918.608 1089.12 921.458 1079.81C925.767 1065.72 930.288 1051.72 934.809 1037.72L934.811 1037.71L934.813 1037.71C937.845 1028.31 940.878 1018.92 943.847 1009.5C945.86 1003.11 947.774 996.685 949.688 990.258L949.691 990.249C951.823 983.092 953.954 975.935 956.222 968.833C964.472 943.002 966.59 938.32 990.172 939.074C1019.43 940.013 1053.78 950.431 1073.8 958.849C1169.88 999.243 1322.34 1099.39 1393.46 1249.03C1417.28 1299.15 1436.78 1348.29 1453.05 1389.3C1470.5 1433.27 1484.24 1467.9 1495.62 1484.38C1505.18 1498.23 1504.12 1506.35 1491.62 1516.4C1490.01 1517.7 1488.47 1519.12 1486.93 1520.54C1482.96 1524.19 1478.99 1527.86 1473.73 1529.46C1468.14 1531.17 1466.43 1536.05 1467.18 1542.45C1469.51 1562.24 1471.67 1582.05 1473.68 1602.91C1469.58 1603.98 1465.69 1603.98 1460.41 1603.01C1456.36 1593.78 1456.61 1585.07 1456.85 1576.49L1456.85 1576.47C1456.86 1576.13 1456.87 1575.79 1456.88 1575.46C1457.3 1560.01 1453.31 1545.8 1449.14 1530.91C1448.13 1527.33 1447.12 1523.72 1446.15 1520.03C1442.79 1521.42 1439.46 1522.66 1436.18 1523.88C1429.16 1526.49 1422.41 1529 1416.17 1532.65C1392 1546.82 1366.79 1557.68 1340.12 1563.22C1319.2 1567.56 1309.61 1580.34 1312.53 1603.97C1307.47 1604.12 1302.4 1603.72 1297.4 1602.8C1295.39 1561.13 1320.63 1551.19 1353.18 1538.39C1356.98 1536.89 1360.89 1535.35 1364.86 1533.72C1412.32 1514.23 1472.9 1486.52 1472.9 1486.52C1472.9 1486.52 1411.76 1342.61 1390.35 1288.31C1348.31 1181.72 1242.66 1091.58 1239.19 1088.77C1233.61 1084.24 1228.07 1079.67 1222.53 1075.09ZM907.261 1176.23C891.633 1223.77 873.922 1270.36 855.741 1316.7C841.775 1352.28 826.538 1387.25 811.314 1422.19L809.754 1425.77C804.346 1438.18 799.21 1450.74 794.073 1463.3L794.072 1463.3C786.615 1481.53 779.157 1499.76 770.864 1517.56C764.153 1531.97 758.373 1546.92 752.593 1561.88L752.592 1561.88C749.96 1568.69 747.329 1575.5 744.609 1582.26C744.447 1582.66 744.271 1583.07 744.095 1583.47C742.923 1586.17 741.734 1588.9 744.483 1591.46C746.608 1593.43 748.85 1591.96 750.695 1590.47C753.136 1588.51 755.472 1586.39 757.69 1584.11C762.057 1579.63 766.401 1575.11 770.745 1570.6L770.76 1570.58L770.768 1570.57C776.858 1564.24 782.947 1557.91 789.1 1551.66C795.575 1545.08 802.094 1538.56 808.614 1532.04L808.618 1532.03C819.197 1521.45 829.776 1510.86 840.166 1500.04C847.678 1492.22 854.208 1483.3 860.722 1474.41C867.677 1464.91 874.614 1455.43 882.706 1447.35C903.839 1426.24 923.718 1404.11 941.541 1379.48C947.741 1370.91 954.203 1362.58 960.665 1354.26C975.006 1335.78 989.349 1317.29 1000.84 1296.16C1005.97 1286.72 1007.21 1280.06 998.428 1272.37C991.718 1266.49 986.113 1258.85 980.625 1251.37C980.379 1251.04 980.133 1250.7 979.887 1250.37C979.772 1250.21 979.656 1250.05 979.539 1249.9C976.431 1245.68 972.858 1240.84 976.338 1234.19C983.749 1233.29 991.199 1232.88 998.651 1232.95C1019.66 1233.04 1040.68 1232.22 1061.68 1231.4C1062.91 1231.35 1064.14 1231.3 1065.36 1231.25C1072.6 1230.97 1077.28 1226.91 1077.62 1217.88C1077.95 1209.13 1078.45 1200.4 1078.94 1191.66C1079.1 1188.92 1079.25 1186.18 1079.4 1183.44C1079.86 1175.08 1080.39 1166.73 1080.92 1158.38C1082.73 1129.93 1084.54 1101.49 1083.37 1072.86C1082.38 1048.59 1081.96 1024.17 1083.29 999.966C1083.95 987.844 1080.01 982.283 1071.63 977.017C1048.01 962.177 1022.13 958.657 996.193 955.13C992.341 954.606 988.487 954.082 984.639 953.52C977.963 952.546 975.791 956.879 974.131 962.255C972.502 967.533 970.639 972.7 968.776 977.871L968.775 977.871C965.98 985.627 963.182 993.389 961.165 1001.54C957.866 1014.87 953.181 1027.68 948.498 1040.48L948.497 1040.48C945.695 1048.14 942.894 1055.79 940.39 1063.56C935.759 1077.94 931.695 1092.54 927.593 1107.27L927.593 1107.27C921.716 1128.38 915.763 1149.77 907.953 1171.18C907.876 1172.88 907.644 1174.58 907.261 1176.23ZM666.602 1004.23C666.783 1004.63 666.963 1005.03 667.141 1005.43C683.641 1042.27 763.347 1162.07 794.879 1205.88C796.219 1207.74 797.746 1209.81 799.408 1212.07C815.913 1234.44 845.684 1274.81 837.38 1307.65C829.049 1340.6 818.389 1373.43 803.468 1403.63C802.516 1405.56 801.87 1407.67 801.213 1409.81C799.927 1414.01 798.602 1418.33 794.879 1421.61C781.905 1399.55 766.622 1379.65 751.339 1359.74C744.415 1350.72 737.49 1341.7 730.781 1332.48C725.976 1325.88 720.621 1319.86 715.259 1313.82C710.802 1308.81 706.34 1303.79 702.182 1298.43C697.061 1291.82 697.59 1287.52 700.829 1282.09C704.339 1276.21 706.539 1269.72 708.734 1263.24C709.351 1261.42 709.967 1259.6 710.611 1257.8C715.27 1244.77 712.081 1237.98 699.837 1234.15C691.334 1231.48 682.632 1231.44 673.925 1231.39C668.333 1231.36 662.738 1231.33 657.194 1230.6C656.574 1230.52 655.937 1230.66 655.295 1230.79C654.807 1230.89 654.316 1231 653.829 1231C626.031 1231.47 623.601 1228.98 614.685 1200.17C602.424 1160.48 594.138 1119.37 589.982 1077.59C589.099 1068.85 587.431 1060.21 585.759 1051.55C584.306 1044.03 582.85 1036.49 581.903 1028.84C579.945 1013.03 582.435 1007.31 595.226 1001.78C609.815 995.474 614.309 989.114 618.421 983.296C623.002 976.813 627.11 971.001 644.179 966.678L644.379 966.627C657.685 963.258 658.641 963.015 659.18 979.055C659.494 988.406 663.173 996.595 666.602 1004.23Z" fill="black"/>
<path d="M1193.04 405.941C1206.75 439.281 1207.53 471.641 1193.66 504.274C1181.05 533.947 1168.41 563.643 1157.09 593.821C1143.73 629.436 1149.42 663.37 1167.09 696.745C1188.04 736.331 1211.89 774.561 1225.26 817.921C1238.37 860.447 1243.57 903.354 1225.81 945.113C1210.55 980.99 1192.18 1015.57 1154.71 1034.86C1124.5 1050.42 1093.74 1053.21 1060.84 1045.44C1024.84 1036.94 998.483 1014.09 972.206 990.404C956.806 976.521 941.292 962.641 924.776 950.152C912.169 940.618 904.419 927.416 894.404 915.94C892.823 914.127 892.504 912.04 893.856 910.112C895.237 908.14 897.225 908.259 899.523 908.832C951.648 921.812 985.833 894.844 1015.73 857.227C1046.43 818.612 1064.85 774.279 1077.61 727.314C1092.76 671.554 1100.3 614.575 1096.56 556.934C1094.63 527.083 1090.22 497.192 1082.15 467.882C1073.63 436.911 1062.42 407.676 1043.98 381.215C1037.63 372.108 1029.32 365.07 1022.11 355.56C1004.74 375.034 984.749 390.307 964.476 404.951C922.824 435.039 877.131 457.598 829.265 476.38C786.731 493.07 741.313 498.113 698.102 511.77C683.296 516.325 670.755 526.3 662.983 539.701C649.338 563.021 644.131 588.729 649.135 615.824C650.09 620.994 651.969 627.272 644.928 628.155C638.403 628.973 639.688 621.955 638.52 617.747C633.66 600.233 630.289 582.352 623.486 565.318C615.886 546.286 591.724 531.88 574.473 537.271C562.806 540.916 555.901 550.334 552.158 560.403C541.436 589.242 536.422 619.069 540.558 650.158C543.312 670.887 554.75 686.885 566.268 703.037C582.068 725.187 592.313 728.098 618.107 720.469C626.622 717.951 630.492 712.249 634.358 705.557C636.044 702.638 637.971 699.116 641.958 699.857C645.897 700.535 649.056 703.491 649.995 707.377C658.044 743.755 670.286 779.248 671.484 817.058C673.248 872.74 624.534 923.412 571.971 924.34C539.071 924.92 506.963 920.215 474.663 915.375C452.318 911.961 429.532 912.741 407.472 917.675C383.641 923.005 360.558 929.315 340.914 944.835C335.606 949.028 331.343 946.935 327.676 940.76C307.885 907.414 289.285 873.63 279.076 835.809C265.952 787.194 260.147 738.93 273.896 688.875C279.404 668.822 284.096 648.775 293.304 630.154C310.061 596.286 332.325 566.779 363.904 545.19C398.904 521.259 434.088 497.603 469.112 473.711C498.068 453.958 520.04 427.639 539.094 398.623C573.562 346.137 612.907 297.792 662.805 259.174C697.547 232.285 735.305 209.807 778.418 199.367C809.023 191.841 840.814 190.448 871.96 195.267C895.641 198.929 918.46 203.683 939.268 215.627C951.677 222.751 964.468 229.748 975.326 238.894C987.634 249.262 1001.8 255.172 1016.37 260.026C1056.24 273.305 1093.03 292.113 1125.67 318.583C1154.67 342.111 1179.67 368.96 1193.04 405.941Z" fill="black"/>
<path d="M944.627 816.092C952.033 815.221 960.378 817.976 967.185 810.431C949.242 807.965 932.391 804.861 913.013 810.709C923.719 817.981 932.908 818.14 944.627 816.092Z" fill="white"/>
<path fill-rule="evenodd" clip-rule="evenodd" d="M939.309 827.862C942.762 827.656 946.265 827.447 949.82 827.444C952.047 826.892 954.137 826.261 956.145 825.654C959.91 824.517 963.382 823.468 966.914 823.2C975.644 822.544 982.646 819.488 982.798 810.253C982.943 801.397 975.936 797.267 967.907 795.18C948.845 790.226 929.907 792.699 911.207 796.842C905.026 798.211 899.263 802.504 898.912 809.963C898.562 817.389 903.857 821.015 909.843 824.144C919.241 829.06 929.052 828.474 939.309 827.862ZM950.555 815.903C948.544 815.884 946.554 815.865 944.627 816.092C932.908 818.14 923.719 817.981 913.013 810.709C930.872 805.32 946.584 807.533 962.983 809.844C964.378 810.04 965.778 810.238 967.185 810.431C962.149 816.013 956.271 815.957 950.555 815.903Z" fill="black"/>
<path d="M977.717 608.419C972.847 636.086 975.317 662.227 980.958 688.644C985.745 711.049 965.781 743.018 934.176 738.325C923.228 736.699 916.749 730.183 912.929 720.476C911.249 716.205 911.356 711.676 916.229 709.541C920.222 707.79 923.642 709.297 925.629 713.514C930.403 723.63 939.013 722.94 947.491 720.397C957.126 717.507 963.937 710.797 964.624 700.54C965.343 690.373 964.794 680.156 962.988 670.125C957.436 639.614 960.088 609.585 971.769 580.569C974.033 574.946 977.182 569.709 983.675 572.292C991.157 575.269 985.451 581.057 984.423 585.421C982.674 592.844 980.22 600.101 977.717 608.419Z" fill="black"/>
<path d="M1029.62 648.952C1025.44 639.521 1019.74 633.786 1009.77 633.304C1003.83 633.018 1002.77 628.198 1000.9 623.485C1002.89 621.985 1004.44 619.819 1006.16 619.669C1027.31 617.977 1048.56 617.941 1069.71 619.562C1075.75 619.985 1079.01 627.636 1072.93 630.029C1062.84 633.997 1060.41 643.24 1054.37 649.844C1046.23 658.751 1039.19 658.941 1029.62 648.952Z" fill="black"/>
<path d="M838.644 619.44C850.781 620.089 861.744 620.369 872.633 621.379C876.215 621.711 880.623 623.202 880.648 628.079C880.678 633.733 876.027 633.289 872.296 633.234C865.979 633.142 862.566 635.914 859.83 641.808C856.402 649.195 852.905 657.118 841.799 656.569C831.327 656.051 826.687 649.424 823.655 641.377C821.521 635.714 818.755 632.977 812.713 633.194C809.337 633.314 805.596 633.045 805.206 628.323C804.79 623.29 808.206 622.285 812.244 621.145C820.579 618.788 828.933 618.411 838.644 619.44Z" fill="black"/>
<path fill-rule="evenodd" clip-rule="evenodd" d="M982.149 563.062C1030.01 528.003 1088.51 547.497 1106.35 600.062C1117.78 633.743 1103.21 678.304 1062.21 693.149C1020.63 708.207 984.384 694.69 963.971 656.814C959.257 648.066 957.243 638.179 956.395 628.766C955.357 617.254 950.713 611.666 939.741 610.24C927.293 608.62 919.199 613.808 915.223 625.551C913.918 629.406 913.179 633.361 912.436 637.337L912.435 637.338C911.561 642.018 910.68 646.729 908.865 651.344C887.699 705.121 819.585 716.095 779.896 673.974C771.406 664.964 766.708 653.156 763.052 641.414C758.14 625.631 748.542 615.865 732.626 610.506C712.858 603.851 693.278 596.635 673.698 589.419L673.698 589.419L673.698 589.418C662.603 585.33 651.508 581.24 640.378 577.253C634.731 575.23 628.696 572.885 631.706 566.043C633.932 560.977 637.655 562.604 641.398 564.24L641.398 564.24C642.53 564.736 643.665 565.232 644.761 565.543C661.955 570.416 678.542 576.982 695.125 583.546C711.656 590.09 728.183 596.632 745.306 601.495C755.761 604.464 764.262 599.168 767.806 590.36C779.38 561.58 802.933 547.515 830.815 545.818C865.362 543.718 893.533 558.67 907.852 592.985C908.728 595.084 909.862 597.076 911.01 599.094C911.553 600.047 912.098 601.006 912.622 601.985C927.794 595.752 942.546 596.185 958.182 602.612C961.851 586.826 970.62 574.584 982.149 563.062ZM858.841 682.438C883.088 672.425 898.872 654.944 901.841 628.645C907.423 579.245 859.724 545.385 812.592 563.406C776.26 577.297 760.692 625.421 784.917 658.539C803.266 683.619 827.726 689.821 858.841 682.438ZM1043.6 558.076C1063.09 559.739 1077.25 573.213 1088.32 589.145C1102.46 612.796 1099.64 644.408 1077.21 668.191C1062.51 683.784 1029.34 691.394 1007.02 681.11C982.13 669.642 965.502 645.396 969.421 615.401C975.322 570.242 1009.35 555.154 1043.6 558.076Z" fill="black"/>
<path d="M827.482 552.562C837.911 548.017 847.238 541.279 854.83 532.807C857.549 529.76 860.906 527.069 864.661 527.723C871.427 528.902 880.888 526.897 883.461 535.264C885.63 542.308 878.284 545.764 873.179 549.664C859.365 560.208 845 568.671 826.597 566.435C821.963 565.871 816.911 566.649 815.506 560.209C817.182 554.698 822.896 555.345 827.482 552.562Z" fill="black"/>
<path d="M1025.42 530.056C1033.89 528.349 1038 534.131 1042.53 538.228C1050.65 545.565 1057.24 554.618 1068.51 557.972C1071.81 558.955 1074.22 561.972 1072.46 566.057C1070.98 569.503 1068.42 571.699 1064.41 570.622C1050.19 566.793 1035.33 564.746 1023.91 553.816C1013.81 544.15 1013.68 539.796 1025.42 530.056Z" fill="black"/>
</svg>
